# xmcd
#
# Track frame offsets:
#	150
#	11031
#	30568
#	44932
#	62744
#	71566
#	92540
#	111691
#	120483
#	137629
#	152410
#	178446
#	214447
#	220362
#	236291
#
# Disc length: 3183 seconds
#
# Revision: 0
# Processed by: cddbd v1.5.2PL0 Copyright (c) Steve Scherf et al.
# Submitted via: audiograbber 1.83.01
#
DISCID=e30c6d0f
DTITLE=John Sebastion and Paul Butterfield - Blues Harmonica Disc 3
DYEAR=1982
DGENRE=Training
TTITLE0=Accompanying an Instrumental
TTITLE1=Accompaniment Example With Tim Hardin
TTITLE2=Accompaniment Example of 'Roadhouse Blues' Broken Down
TTITLE3=The Doors 'Roadhouse Blues'
TTITLE4=Purcussive Techniques
TTITLE5=Playing Over Various Chords
TTITLE6=Play Along with John
TTITLE7=Balancing Your Breathing
TTITLE8='Stewball'
TTITLE9=Changing Harmonicas
TTITLE10='Daydream' Broken Down
TTITLE11='Welcome Back'
TTITLE12=Soloing Tips
TTITLE13='Night Owl Blues'
TTITLE14=Goodbye!
EXTD=
EXTT0=
EXTT1=
EXTT2=
EXTT3=
EXTT4=
EXTT5=
EXTT6=
EXTT7=
EXTT8=
EXTT9=
EXTT10=
EXTT11=
EXTT12=
EXTT13=
EXTT14=
PLAYORDER=
